<svg width="68" height="67" viewBox="0 0 68 67" fill="none" xmlns="http://www.w3.org/2000/svg">
<g filter="url(#filter0_b_1111_12925)">
<rect x="0.173828" y="0.697754" width="66.9487" height="65.7551" rx="32.8776" fill="#FF4949"/>
</g>
<path d="M49.0265 35.8771L48.7385 37.2164C48.5094 38.2835 47.9332 39.2228 47.1176 39.8592C46.302 40.4956 45.3026 40.7854 44.306 40.6746L41.6749 40.3825C40.8178 40.2877 40.0092 39.9017 39.3627 39.2785C38.7163 38.6554 38.2644 37.8264 38.0704 36.9079L37.4854 34.1406C37.4742 34.0875 37.4535 34.0374 37.4244 33.9931C37.3953 33.9489 37.3584 33.9114 37.3159 33.8829C36.8344 33.5596 35.7664 33.3577 34.1689 33.3577C32.9899 33.3577 32.0914 33.4677 31.4899 33.6679C31.2799 33.7385 31.1329 33.8074 31.0399 33.8583L30.9034 33.9371L30.8824 34.0027L30.2689 36.9079C30.0754 37.8262 29.624 38.6552 28.9781 39.2786C28.3323 39.902 27.5242 40.2886 26.6674 40.3841L24.0484 40.6746C23.055 40.785 22.0587 40.4973 21.2444 39.865C20.4301 39.2326 19.8531 38.2986 19.6203 37.2361L19.3278 35.8952C19.0934 34.8218 19.1271 33.6992 19.4253 32.645C19.7235 31.5907 20.2753 30.6436 21.0229 29.9028C23.8714 27.0748 28.2664 25.6978 34.1704 25.6978C40.0834 25.6978 44.483 27.0797 47.333 29.9159C48.0325 30.6118 48.5604 31.4895 48.8679 32.4677C49.1755 33.4459 49.2527 34.4932 49.0925 35.5127L49.0265 35.8771ZM46.886 35.0335C46.9713 34.4304 46.9187 33.8135 46.7328 33.2381C46.547 32.6627 46.2337 32.1466 45.821 31.7361C43.448 29.3759 39.5764 28.1597 34.1704 28.1597C28.7734 28.1597 24.9049 29.3726 22.5304 31.7246C22.0822 32.1692 21.7516 32.7374 21.5729 33.3697C21.3943 34.0021 21.3742 34.6753 21.5149 35.3191L21.8074 36.6617C21.9129 37.1449 22.1752 37.5698 22.5454 37.8574C22.9156 38.1451 23.3686 38.276 23.8204 38.2258L26.4394 37.9337C26.8286 37.8902 27.1957 37.7146 27.4891 37.4315C27.7826 37.1483 27.9878 36.7718 28.0759 36.3547L28.7104 33.3676L28.7749 33.1443C29.3374 31.5063 31.1599 30.8958 34.1704 30.8958C36.1459 30.8958 37.5679 31.1649 38.4904 31.7821C39.0919 32.1842 39.5209 32.8358 39.6784 33.5875L40.2634 36.3531C40.4434 37.2099 41.1019 37.845 41.8999 37.9337L44.5325 38.2258C44.9855 38.2761 45.4397 38.1442 45.8104 37.8549C46.1811 37.5656 46.4429 37.1385 46.547 36.6535L46.835 35.3141L46.886 35.0335Z" fill="white"/>
<defs>
<filter id="filter0_b_1111_12925" x="-11.2737" y="-10.7498" width="89.8433" height="88.6504" filterUnits="userSpaceOnUse" color-interpolation-filters="sRGB">
<feFlood flood-opacity="0" result="BackgroundImageFix"/>
<feGaussianBlur in="BackgroundImageFix" stdDeviation="5.72376"/>
<feComposite in2="SourceAlpha" operator="in" result="effect1_backgroundBlur_1111_12925"/>
<feBlend mode="normal" in="SourceGraphic" in2="effect1_backgroundBlur_1111_12925" result="shape"/>
</filter>
</defs>
</svg>
